PathFileType	4	(X/Y/Z)	39_2_109_p1_0-290.trc
DataRate	CameraRate	NumFrames	NumMarkers	Units	OrigDataRate	OrigDataStartFrame	OrigNumFrames
47.0	47.0	6	27	m	47.0	181	291
Frame#	Time	RHip			RKnee			RAnkle			RBigToe			RSmallToe			RHeel			LHip			LKnee			LAnkle			LBigToe			LSmallToe			LHeel			Neck			Head			Nose			RShoulder			RElbow			RWrist			RThumb			RIndex			RPinky			LShoulder			LElbow			LWrist			LThumb			LIndex			LPinky			
		X1	Y1	Z1	X2	Y2	Z2	X3	Y3	Z3	X4	Y4	Z4	X5	Y5	Z5	X6	Y6	Z6	X7	Y7	Z7	X8	Y8	Z8	X9	Y9	Z9	X10	Y10	Z10	X11	Y11	Z11	X12	Y12	Z12	X13	Y13	Z13	X14	Y14	Z14	X15	Y15	Z15	X16	Y16	Z16	X17	Y17	Z17	X18	Y18	Z18	X19	Y19	Z19	X20	Y20	Z20	X21	Y21	Z21	X22	Y22	Z22	X23	Y23	Z23	X24	Y24	Z24	X25	Y25	Z25	X26	Y26	Z26	X27	Y27	Z27	
181	3.851063829787234	0.3124402980875301	0.7625597973365328	0.4888248435206747	0.27081350056792286	0.7942337147221427	0.9190619494378532	0.21879034987459298	0.8972538456739196	1.3338694460302856	0.21470666536631416	0.6753496332527217	1.3489039321846579	0.2741106323026585	0.7182922105349147	1.3717584269474457	0.19693596541569056	0.9713310581481556	1.3861318047794637	0.11118701237426253	0.7872584305678356	0.4683490163691807	0.07948121080313003	0.8009007797105582	0.9022223484193178	0.05448008836197995	0.8276407135338311	1.285973896289945	0.06962763712058191	0.6670735714113749	1.3325558382398484	0.01358956116633675	0.6978430855983145	1.3374354018815229	0.05853816413749889	0.9048645819488449	1.3585685483480314	0.24429473698219248	0.5640837144118794	0.08825154730111238	0.24306740254905812	0.22964216960341918	-0.14858099632544564	0.25388040543139717	0.33423698691118503	0.0372579504488475	0.4076501282009813	0.5065600797477378	0.07706981265893413	0.5131827412629469	0.6877588682496671	0.2830074962682756	0.46770256033386	0.48617977586068284	0.43318254071359763	0.372545180514536	0.43631264655131036	0.5222614955349496	0.3913801756500742	0.4492084752389894	0.5340906830582677	0.44208038646950665	0.4427949605073308	0.543068505049944	0.06455614115525567	0.5541391717574047	0.07654529585713689	-0.0936634019930405	0.6448303783072319	0.25608492617989653	-0.012958500206758592	0.45144531507403857	0.4060181579343249	0.04844237987938856	0.3823383943811675	0.4709427105676437	0.04110106572646747	0.36860764187807504	0.48278393713643236	0.012071682016565229	0.3909179122678558	0.4878603658761867
182	3.872340425531915	0.31666524501736015	0.7642712236954005	0.4858484239417311	0.2675905540366361	0.7801576416325454	0.9146278814157507	0.2188532612806834	0.8972965535698137	1.3338208614925278	0.21533823502502014	0.6773542361032132	1.353810960362648	0.2741136806815442	0.7182119229567709	1.3717211794380413	0.19698234626190672	0.9713692636941578	1.3861154531877589	0.10818431477129851	0.7721695193578384	0.46552826896321026	0.0793643060508909	0.8004051723416269	0.901914153565552	0.05439797532133572	0.827590919758597	1.2858405442883845	0.06964584555536345	0.6670473482615956	1.3325259906731244	0.009285805317027563	0.6955384986407395	1.3363913412761237	0.058254380256601714	0.9050255129215574	1.3589659932327265	0.24389663909322842	0.5648572249208221	0.09915229817680846	0.2387921278891555	0.24038530440514685	-0.14260268465843168	0.2539092028182711	0.3379639323131642	0.05795484220696988	0.4119306212291586	0.508635047734414	0.08784233798278666	0.5091129824671655	0.6732678207533591	0.29321616806866807	0.45939593959465946	0.4731858619983237	0.45383304084996146	0.3724598762472774	0.4364090913241975	0.5352526977698449	0.38378640724475654	0.4570383472509036	0.5573828330624319	0.44235133036522506	0.43801574194334325	0.5592023086257479	0.06479142263079707	0.5539492065486736	0.0771666261087015	-0.07771374682400385	0.6659194838927683	0.2663790663946869	-0.012795438935749701	0.4513645991004329	0.4103202736124069	0.0521771555476711	0.3840411575491072	0.4823796194257597	0.041689843679988126	0.36963925035020895	0.49102100582610403	0.018141918312475833	0.3904294112972383	0.49562978213292785
183	3.893617021276596	0.31150774835633127	0.781806739283635	0.49707883534468295	0.267529186319509	0.7804033830175625	0.9151916850685154	0.2188636455943425	0.8972307597098538	1.3338818376718595	0.21266364299796686	0.6644755096392799	1.3476851840072326	0.2712137688302578	0.7041290412301836	1.365308672522247	0.1970372320707949	0.9713671661069933	1.3861354595369144	0.10826565256937605	0.7739631416289712	0.46971435457708677	0.07951482764003773	0.8000795203429036	0.9019886594297097	0.05317628984180154	0.8285761089192978	1.2909782598730868	0.06969882788810519	0.6664100690568074	1.332375699645454	0.013749027154765803	0.697233372014508	1.337158105102157	0.05878229579224367	0.9065914536958802	1.362902262546075	0.24353734753561712	0.5648006241841426	0.10309662589543732	0.24252161351030108	0.22974573420831182	-0.1360807261754362	0.2538199935812338	0.3392608454760673	0.06136100506685134	0.4119470090800513	0.5081284003329553	0.08799424120152452	0.5013640419052025	0.6492711750263592	0.3019301701349075	0.4557106095123637	0.46262556003181554	0.46312777659112	0.3646484660139087	0.42161896647294106	0.5461202625858246	0.3724249605055925	0.4331361212262932	0.5633266379322472	0.43867889737349586	0.42978994439955887	0.5646672697069771	0.06969784790866375	0.5420541692029817	0.08396198887570348	-0.07612283967478631	0.6508318586075562	0.2768316311172376	-0.010012665620191282	0.4547187062595638	0.42554510443478233	0.058948214705866094	0.3864318731998413	0.48350647694855264	0.04453475672131312	0.37117283743757135	0.49508204592842836	0.021419724375740263	0.3808650797172466	0.5102887742886701
184	3.9148936170212765	0.308220057424929	0.7687039309257288	0.49515863891600964	0.26703380891883816	0.8137855049955491	0.9386619435280924	0.21946088765330787	0.8993677188506278	1.3392407012405305	0.2154164294835604	0.6774668132735752	1.3537457794871726	0.2712818001979954	0.7046327713115137	1.3654922035684645	0.20281960338853355	0.9528262205824827	1.3778866533037601	0.1029632534778734	0.789401748519625	0.4775234793050172	0.07735210273178417	0.7863293623158383	0.8977864302920874	0.05496180333736024	0.8301455020420294	1.2918062534935764	0.0698411438362585	0.6665227159708309	1.3323900547290524	0.010483771099184963	0.6945352835390121	1.3321363051025603	0.05865393988892519	0.9063261659452428	1.3628517331875198	0.2436449323928613	0.5659929072816985	0.10728003578473076	0.25056084757433383	0.22180559678146178	-0.13232078140504053	0.25352533839787217	0.34063861441568927	0.06832427224779902	0.40816845624578624	0.5200368051230815	0.09219547122755897	0.4937318293170987	0.6348330912952409	0.30867646336634996	0.44842303269692957	0.44841027329283645	0.472464880573026	0.356881900107877	0.4325739122151953	0.5645840616094789	0.3652583453748083	0.4224179314600149	0.5740372198419206	0.41726269349811296	0.487083785782775	0.5911259646445112	0.06977517112914551	0.5410667079074755	0.08448689501943521	-0.06766131111357492	0.6573433849495778	0.2830303493879524	-0.008324164928532505	0.4586949934733238	0.4450753796668031	0.05861899960008414	0.3879532880047714	0.49506884731790957	0.043301619729209186	0.3705448941336201	0.5272043308574165	0.023679522217201557	0.38220618553992297	0.5470921310723834
185	3.9361702127659575	0.31165295684467853	0.7831462928369884	0.5062906880164573	0.26172419390865026	0.8122192669829642	0.9429675116081864	0.21947452201910841	0.8995622541691098	1.3393993562860986	0.21537205531242842	0.6777769122170987	1.353911955975373	0.27416226811533906	0.7189603399876228	1.371997468242608	0.19707286204406113	0.9710285789334362	1.385956946486394	0.10430632936379595	0.8042434817728434	0.48394774694492076	0.08426688811878374	0.8031379346252396	0.9029752883732471	0.05479732601162345	0.827001259784704	1.2905045175017262	0.07105415146349864	0.6658042706459828	1.3281997508979506	0.010467220864783239	0.6944186418646605	1.3320556302478173	0.058730724271771485	0.9050175304648908	1.367326766656121	0.23988214252762588	0.5642390429465305	0.11063281082547606	0.25433943077863874	0.2240432998359243	-0.12579371139852522	0.2485574078501655	0.3195589674334039	0.07015387894983417	0.40786395136965736	0.5063274641489732	0.09159126087217369	0.49086204923634047	0.6274623253142696	0.32633013713704706	0.43695661113705314	0.47721493397412684	0.498174190220248	0.3536925334060048	0.4257087463031187	0.5868054258384845	0.3603907568247964	0.42827479572947397	0.6152716880594788	0.4076773180989151	0.4582878994364505	0.621005735209112	0.06963227806801438	0.5421947266658311	0.09232447195587047	-0.05176815126205697	0.6353542234046536	0.2935860698776583	-0.002816263085867226	0.45055593515568254	0.4799124764086308	0.0702207786183404	0.4094658624289575	0.5343823518631724	0.046883767246768744	0.3799262183661146	0.5657975077368922	0.029769127588643182	0.37815677015305926	0.5688208793915484
186	3.9574468085106385	0.3085663947124659	0.7701064330812871	0.5039999676295532	0.26158269111386584	0.8115940989761166	0.9467884207932881	0.2137647085116392	0.9177802387916562	1.3473377885867681	0.2153458537344377	0.6778616008991482	1.354079448506806	0.2741052730616467	0.7186327089857883	1.371885404077007	0.1984250785447403	0.970098933477284	1.3806210585569827	0.10656122992709194	0.8202758789555444	0.4907100084095579	0.08191115500407321	0.7887070844650458	0.8985180436527558	0.0547841530720711	0.8268176563953685	1.2903937483660641	0.07121415004900421	0.6658666266189608	1.3282058355538342	0.014949876231949856	0.6963687565120535	1.3328940924347055	0.0582136054565227	0.9052751961624882	1.3624313073601249	0.2432639315917681	0.5657908022555083	0.11808364148468287	0.2540002119569334	0.22414648641088944	-0.12502284806488775	0.2565089790686753	0.3515074459621554	0.0756943488528954	0.4074510203449593	0.506511470776303	0.0950737721788632	0.48726701036795433	0.6161062985486614	0.3373393973500442	0.4339586647785942	0.4694284515359807	0.5241130008932754	0.35214559142964225	0.4296614578174379	0.6225780097295719	0.36002696678731266	0.4264436795968908	0.6445331271647051	0.4106551381798557	0.49093446199133683	0.6576490868790401	0.06916060087323016	0.5421292018439512	0.09571326444311044	-0.04392008870038143	0.6347498765737152	0.30964899448993805	-0.0027879659923883814	0.4526367042559108	0.4959714301928081	0.07155340245831857	0.43808030246205854	0.5753245351383764	0.05183161843623538	0.394875527178145	0.5772894609311917	0.030841434645032712	0.39047850918571714	0.5791143001869663
